<svg width="28" height="28" viewBox="0 0 28 28" fill="none" xmlns="http://www.w3.org/2000/svg">
<mask id="mask0_2_13" style="mask-type:alpha" maskUnits="userSpaceOnUse" x="0" y="0" width="28" height="28">
<path fill-rule="evenodd" clip-rule="evenodd" d="M20.5188 27.6696H22.6156C25.4103 27.6696 27.6724 25.4103 27.6724 22.6128V4.16263C27.6724 1.85847 25.8139 1.90735e-06 23.5098 1.90735e-06H4.16263C1.85847 1.90735e-06 0 1.85847 0 4.16263V22.9127C0 25.5448 2.12757 27.6696 4.75689 27.6696H20.5188Z" fill="#C0C0C0"/>
</mask>
<g mask="url(#mask0_2_13)">
<rect x="-6.16674" y="-7.66388" width="39.8043" height="42.8877" fill="#00EA9C"/>
<path d="M9.14305 17.6172H18.5195C20.3471 17.6172 21.8272 19.0972 21.8272 20.9249L20.4256 40.2047H7.24534L5.84379 20.9249C5.83538 19.0972 7.31542 17.6172 9.14025 17.6172H9.14305Z" fill="#FBFAF8"/>
<path d="M13.8354 15.1007C17.3001 15.1007 20.1284 12.2892 20.1284 8.80768C20.1284 5.32621 17.3169 2.51469 13.8354 2.51469C10.354 2.51469 7.54245 5.32621 7.54245 8.80768C7.54245 12.2892 10.3708 15.1007 13.8354 15.1007Z" fill="#FBFAF8"/>
<path d="M13.9369 27.418C13.9369 27.418 13.9229 27.418 13.9145 27.418C13.7799 27.4096 13.6566 27.3395 13.5837 27.2274C13.4968 27.0929 13.2502 26.7705 12.9867 26.4257C11.986 25.1139 11.5571 24.514 11.4926 24.2C11.473 24.0823 11.4337 23.8441 12.3139 21.4306C13.2137 18.975 13.3791 18.8769 13.5108 18.7984C13.5557 18.7704 13.6062 18.7536 13.6594 18.7452C14.1275 18.6723 14.3798 18.6891 14.6069 18.7031C14.6769 18.7087 14.7414 18.7115 14.8115 18.7143C14.7582 18.4649 14.7022 18.2126 14.6461 17.9631C14.5788 17.6604 14.5088 17.3492 14.4471 17.0493C13.9005 17.0549 13.1717 17.2007 12.6475 17.4642C12.712 17.6912 12.7736 17.8902 12.8381 18.1005C12.9222 18.3724 13.0091 18.6555 13.1016 19.0031L12.2887 19.2161C12.2018 18.8853 12.1205 18.6246 12.0364 18.3499C11.9439 18.0556 11.8514 17.7529 11.7533 17.3689C11.7084 17.1979 11.7757 17.0185 11.9215 16.9175C12.7232 16.3653 14.035 16.1327 14.8423 16.228C15.0245 16.2504 15.1731 16.385 15.2067 16.5672C15.2796 16.954 15.3749 17.3745 15.4646 17.7809C15.5571 18.193 15.6524 18.619 15.7281 19.0199C15.7505 19.132 15.7253 19.2497 15.658 19.3422C15.5908 19.4347 15.4898 19.4992 15.3777 19.516C15.2796 19.5301 15.1927 19.5413 15.1142 19.5469C15.4366 20.6373 16.5018 24.1272 16.5158 24.1664C16.5522 24.2869 16.5326 24.4187 16.4625 24.5252C16.171 24.9597 15.4198 25.8623 14.8171 26.5883C14.6013 26.849 14.405 27.0845 14.2593 27.2639C14.178 27.362 14.0603 27.418 13.9313 27.418H13.9369ZM12.3335 24.0599C12.4821 24.3738 13.2417 25.3689 13.6594 25.9156C13.7687 26.0585 13.8696 26.1931 13.9593 26.3108C14.0294 26.2267 14.0995 26.1398 14.1752 26.0501C14.6685 25.4558 15.3245 24.6654 15.6552 24.2141C15.3973 23.3647 14.4106 20.1299 14.2425 19.5357C14.164 19.5357 14.0771 19.5441 13.9734 19.5553C13.6118 20.2645 12.4513 23.4404 12.3335 24.0627V24.0599Z" fill="#011124"/>
<path d="M18.9015 9.17263L18.7165 8.35131C19.0136 8.28404 19.2855 8.03736 19.4257 7.7094C19.5546 7.40666 19.5462 7.08711 19.4061 6.85445C19.2575 6.61338 18.952 6.46201 18.6072 6.46201C18.3437 6.46201 18.111 6.54891 17.9597 6.70028C17.9176 6.75914 17.8756 6.8152 17.8307 6.87127C17.6906 7.03945 17.4411 7.07309 17.2617 6.94415C17.0823 6.8152 17.0318 6.57133 17.1468 6.38352C17.1944 6.30784 17.2449 6.23496 17.3037 6.17049C17.5981 5.736 17.7746 5.13053 17.5336 4.67362C17.2393 4.1102 16.4292 3.96443 15.8153 4.1158C15.179 4.27558 14.6015 4.6512 13.9904 5.04924L13.7354 5.21462C12.6197 5.91821 11.6414 6.32466 10.6519 6.49565C9.40454 6.71429 8.21041 6.50686 7.29099 5.9154C6.19216 5.22023 5.41009 3.94481 4.9672 2.13119C4.92515 1.96301 4.99243 1.78641 5.13539 1.6855C5.27835 1.58459 5.46616 1.58459 5.61192 1.6827C6.51172 2.28817 7.69464 2.15362 8.31973 2.02187C8.94202 1.89854 9.53909 1.6883 10.1698 1.46686C10.5314 1.33791 10.9042 1.20617 11.2826 1.09404C12.7963 0.639937 14.4726 0.485765 16.1292 0.642739C17.94 0.810926 19.3584 1.37435 20.3451 2.3134C21.3262 3.25805 21.87 4.62597 21.7971 5.97147L20.9562 5.92662C21.0151 4.82219 20.5694 3.69814 19.7621 2.92167C18.9155 2.11718 17.6681 1.63224 16.0479 1.48087C14.495 1.33231 12.9309 1.47807 11.5209 1.90134C11.1621 2.00786 10.7977 2.1368 10.4473 2.26294C9.8166 2.48439 9.16347 2.71705 8.48512 2.84879C7.59372 3.0394 6.75559 3.01978 6.03799 2.80394C6.43604 3.9364 7.00787 4.7437 7.74229 5.20902C8.48792 5.68835 9.46901 5.85093 10.5062 5.66873C11.3835 5.51456 12.2665 5.14455 13.2841 4.50544L13.5335 4.34286C14.1754 3.92519 14.8398 3.49071 15.6162 3.29729C16.5665 3.06463 17.7859 3.32813 18.282 4.28119C18.5063 4.70726 18.5343 5.17818 18.439 5.62668C18.4951 5.62108 18.5511 5.61827 18.61 5.61827C19.2463 5.61827 19.8293 5.92381 20.1265 6.41436C20.4068 6.87687 20.4376 7.48235 20.2021 8.03456C19.9555 8.61761 19.4705 9.04088 18.9043 9.16982L18.9015 9.17263Z" fill="#011124"/>
<path d="M6.94607 11.5646C6.28173 11.5646 5.65664 11.3348 5.20253 10.9003C4.62509 10.4126 4.38963 9.67814 4.55501 8.88205C4.74282 7.98505 5.39034 7.25624 6.20324 7.02078C6.20885 7.02078 6.21165 7.02078 6.21726 7.01798C7.00494 6.81895 8.02247 7.11889 8.75128 7.76361C9.35115 8.2962 9.64828 8.97736 9.56418 9.63609C9.4044 10.477 8.7681 11.1358 7.85708 11.4217C7.55154 11.517 7.2432 11.5646 6.94327 11.5646H6.94607ZM6.4303 7.83088C5.92293 7.98225 5.50247 8.47279 5.37913 9.05584C5.32026 9.34176 5.28943 9.87716 5.75194 10.264C5.76035 10.2696 5.76876 10.278 5.77437 10.2864C6.20605 10.7041 6.92365 10.8358 7.6048 10.6228C8.21588 10.4294 8.63635 10.0117 8.73446 9.50715C8.79613 9.0138 8.42331 8.59894 8.19346 8.39711C7.68049 7.94581 6.94046 7.70754 6.4303 7.83368V7.83088Z" fill="#011124"/>
<path d="M9.25584 9.43998L9.07363 8.61866C9.72956 8.4729 10.3911 8.40563 11.033 8.42525L11.0106 9.26618C10.4303 9.25217 9.84449 9.31103 9.25584 9.43998Z" fill="#011124"/>
<path d="M13.8536 11.0968C13.3182 11.0968 12.7828 10.9034 12.3876 10.5193C11.8213 10.026 11.5775 9.2299 11.7681 8.46184C11.9475 7.73584 12.4773 7.20324 13.1837 7.03225C14.2264 6.78838 15.2524 7.17802 15.7317 7.99933C16.1858 8.7786 16.04 9.73166 15.3449 10.4857C14.9496 10.8921 14.3974 11.0968 13.848 11.0968H13.8536ZM13.3799 7.85077C12.9762 7.94887 12.6875 8.2432 12.5838 8.66367C12.4717 9.12058 12.6174 9.60552 12.9566 9.90265C13.1977 10.1353 13.52 10.2614 13.8564 10.2614H13.862C14.2012 10.2614 14.5208 10.1325 14.7366 9.90825C15.1683 9.43733 15.272 8.87951 15.0057 8.4226C14.7086 7.91243 14.0666 7.68818 13.3771 7.85077H13.3799Z" fill="#011124"/>
</g>
</svg>
